<?xml version="1.0" encoding="UTF-8"?>
<svg version="1.1" xmlns="http://www.w3.org/2000/svg" width="1480" height="260" viewBox="150 340 1480 260">
<defs><mask id="aCounters" maskUnits="userSpaceOnUse" x="150" y="340" width="1770" height="260">
<rect x="150" y="340" width="1770" height="260" fill="#fff"/>
<path d="M0 0 C8.89066836 5.64215492 15.68721621 13.59512325 18.25 24.0625 C19.84577173 38.59268193 20.07596151 53.71897854 11.1953125 65.875 C4.13236435 74.28210783 -4.45147604 80.22228884 -15.56640625 81.34765625 C-27.98951526 81.72018755 -39.35965468 78.6445263 -48.75 70.28125 C-58.28519976 60.25285026 -61.28588595 47.39566288 -61.05859375 33.9453125 C-60.07807254 21.60812156 -54.89250619 11.78628457 -46.0625 3.25 C-32.62340435 -7.57308848 -14.90927643 -8.02563178 0 0 Z " fill="#000" transform="translate(1183.75,434.9375)"/>
<path d="M0 0 C8.39801602 6.75566208 13.25672431 14.71146179 15.75 25.1875 C16.04473389 28.25538017 16.08389709 31.29443995 16.0625 34.375 C16.05512817 35.62966064 16.05512817 35.62966064 16.04760742 36.90966797 C15.82039415 48.99275351 12.88562093 59.73938105 4.6875 68.875 C-4.22485218 77.29658388 -14.62100853 79.61211109 -26.42578125 79.39453125 C-37.42185169 78.79923837 -46.22168257 73.87876813 -53.625 65.75 C-56.45867754 62.15801438 -58.50721424 58.40891438 -60.25 54.1875 C-60.55035156 53.49527344 -60.85070312 52.80304688 -61.16015625 52.08984375 C-64.85526191 42.07009213 -64.9837633 28.39976747 -61.2890625 18.3515625 C-55.83019629 6.9823449 -47.78693136 -0.74169536 -36.25 -5.8125 C-23.68996182 -9.2955358 -10.57024256 -7.39718663 0 0 Z " fill="#000" transform="translate(885.25,436.8125)"/>
</mask></defs>
<g mask="url(#aCounters)">
<path d="M0 0 C2.20214846 1.63921984 4.23708582 3.31102544 6.2421875 5.18359375 C6.98082031 5.87195313 7.71945312 6.5603125 8.48046875 7.26953125 C10.2421875 9.18359375 10.2421875 9.18359375 10.2421875 11.18359375 C10.9021875 11.18359375 11.5621875 11.18359375 12.2421875 11.18359375 C12.13777344 9.97123047 12.13777344 9.97123047 12.03125 8.734375 C11.5987428 0.19750662 11.5987428 0.19750662 14.3046875 -4.06640625 C19.61551056 -7.43331561 27.33391497 -7.01527529 33.2421875 -5.81640625 C36.16508972 -4.27547653 38.27860767 -2.47907793 40.2421875 0.18359375 C41.24958395 3.99738526 41.15924565 7.69135238 41.08447266 11.61743164 C41.09031372 12.76119766 41.09615479 13.90496368 41.10217285 15.08338928 C41.11257823 18.85854817 41.07275066 22.63133283 41.03125 26.40625 C41.02580692 29.03128147 41.02302641 31.65631971 41.02279663 34.28135681 C41.01723913 39.78007911 40.98497333 45.27812164 40.93505859 50.77661133 C40.87757513 57.12742752 40.85474453 63.47759594 40.8521744 69.82865721 C40.8495291 75.94766056 40.82919176 82.06643086 40.79938889 88.18536186 C40.78732254 90.78529979 40.77862299 93.38525559 40.7733345 95.98521614 C40.76213072 99.61683231 40.73099507 103.24771874 40.69384766 106.87915039 C40.69363617 107.95513489 40.69342468 109.03111938 40.69320679 110.13970947 C40.56214765 119.26106414 40.56214765 119.26106414 37.2421875 123.18359375 C33.33136508 126.28645112 30.16695524 126.61578689 25.2421875 126.62109375 C24.0459375 126.64042969 22.8496875 126.65976562 21.6171875 126.6796875 C17.67291987 126.09991668 16.04945952 124.95474278 13.2421875 122.18359375 C11.95771831 119.61465537 11.91241606 117.41783038 11.6796875 114.55859375 C11.55400391 113.05425781 11.55400391 113.05425781 11.42578125 111.51953125 C11.36519531 110.74867188 11.30460938 109.9778125 11.2421875 109.18359375 C10.89929688 109.66828125 10.55640625 110.15296875 10.203125 110.65234375 C3.36873243 119.40575295 -7.29320288 125.56295029 -18.17578125 127.77734375 C-36.62317459 129.86952358 -53.37035684 128.53119901 -68.7578125 117.18359375 C-84.84069879 104.33186135 -94.00550556 87.67010483 -96.7578125 67.18359375 C-97.98203535 47.77665125 -93.32912356 28.52103381 -80.2578125 13.62109375 C-78.77824043 12.12149363 -77.27962875 10.64030557 -75.7578125 9.18359375 C-75.16871094 8.56355469 -74.57960938 7.94351562 -73.97265625 7.3046875 C-69.76041822 3.1665108 -64.97963375 0.5212955 -59.7578125 -2.12890625 C-59.09322021 -2.46680176 -58.42862793 -2.80469727 -57.74389648 -3.15283203 C-39.97576692 -11.78025819 -16.48419839 -10.85715616 0 0 Z " fill="#DA7353" transform="translate(888.7578125,412.81640625)"/>
<path d="M0 0 C3.74987625 2.88913953 7.01661981 6.19306849 10.1953125 9.69140625 C10.22109375 9.02753906 10.246875 8.36367188 10.2734375 7.6796875 C10.62710396 2.17374369 10.9818128 -1.35045767 15.1953125 -5.30859375 C18.22688107 -6.82437803 21.07497864 -6.55831302 24.4453125 -6.62109375 C25.74984375 -6.65847656 27.054375 -6.69585937 28.3984375 -6.734375 C32.74453858 -6.24700358 34.83761515 -5.05071325 38.1953125 -2.30859375 C39.41080947 0.12240019 39.33176444 1.69160568 39.34921265 4.40924072 C39.35781311 5.40460342 39.36641357 6.39996613 39.37527466 7.42549133 C39.38166458 9.06967293 39.38166458 9.06967293 39.38818359 10.74707031 C39.40044983 12.4740641 39.40044983 12.4740641 39.41296387 14.23594666 C39.43784905 18.05963617 39.45434176 21.88328849 39.46875 25.70703125 C39.47407368 27.01058311 39.47939735 28.31413498 39.48488235 29.65718842 C39.50651246 35.13538794 39.52524816 40.61358452 39.53650475 46.09181595 C39.55273707 53.93979388 39.58589493 61.78727615 39.64290559 69.63506722 C39.68163237 75.15447629 39.70114072 80.67375294 39.70642531 86.19329429 C39.71007567 89.48906606 39.72456547 92.78418841 39.75452805 96.07984161 C39.78607488 99.7596672 39.78623118 103.43823928 39.77880859 107.11816406 C39.79521393 108.2061882 39.81161926 109.29421234 39.82852173 110.41520691 C39.76040528 118.65816355 39.76040528 118.65816355 36.78384399 122.35223389 C32.85957134 125.89847242 29.98523458 125.95939644 24.8828125 126.06640625 C23.56667969 126.11539063 22.25054688 126.164375 20.89453125 126.21484375 C16.36111339 125.57336752 15.01009682 124.20856639 12.1953125 120.69140625 C10.93293519 118.16665163 11.09674846 116.37940159 11.1328125 113.56640625 C11.14183594 112.65632812 11.15085937 111.74625 11.16015625 110.80859375 C11.17175781 110.10992188 11.18335938 109.41125 11.1953125 108.69140625 C10.5353125 108.69140625 9.8753125 108.69140625 9.1953125 108.69140625 C8.9375 109.28050781 8.6796875 109.86960937 8.4140625 110.4765625 C3.29521386 119.77908552 -8.355245 124.25829111 -18.01708984 127.07177734 C-22.8922188 128.15542398 -27.70347078 128.17875149 -32.6796875 128.12890625 C-34.26849731 128.11754639 -34.26849731 128.11754639 -35.8894043 128.10595703 C-43.47706793 127.94579835 -49.94299206 127.11693483 -56.8046875 123.69140625 C-58.19107422 123.03785156 -58.19107422 123.03785156 -59.60546875 122.37109375 C-75.78282708 114.18172563 -85.64837024 102.12376007 -92.8046875 85.69140625 C-93.46017578 84.20060547 -93.46017578 84.20060547 -94.12890625 82.6796875 C-100.35165899 65.97650909 -97.91750833 44.73970824 -90.8046875 28.69140625 C-82.01092169 11.05807377 -68.60314161 -0.76684464 -50.04296875 -7.27734375 C-32.98340062 -12.30444705 -14.92537735 -9.68884665 0 0 Z " fill="#DA7353" transform="translate(1190.8046875,413.30859375)"/>
<path d="M0 0 C1.04220703 -0.04253906 1.04220703 -0.04253906 2.10546875 -0.0859375 C6.0484108 -0.10078851 8.55616436 0.45894166 11.5703125 2.90625 C15.24204935 6.63412962 15.25885563 8.38507493 15.33032227 13.51025391 C15.35026749 14.77141022 15.37021271 16.03256653 15.39076233 17.3319397 C15.40774665 18.71347937 15.42462546 20.09502034 15.44140625 21.4765625 C15.4619756 22.88618582 15.48297207 24.29580297 15.50437927 25.70541382 C15.55960195 29.41747035 15.60901031 33.12958257 15.65722656 36.84173584 C15.70744018 40.62891603 15.76312697 44.41601526 15.81835938 48.203125 C15.92594333 55.63534812 16.02738773 63.06763852 16.125 70.5 C16.66076157 69.95105072 17.19652313 69.40210144 17.7485199 68.83651733 C18.45855667 68.11622345 19.16859344 67.39592957 19.90014648 66.65380859 C20.60090805 65.93985931 21.30166962 65.22591003 22.02366638 64.49032593 C24.89273529 61.77282206 27.72429663 60.03815631 31.1875 58.125 C32.33347656 57.47789062 33.47945312 56.83078125 34.66015625 56.1640625 C46.81089653 50.32841948 63.73431004 50.44161715 76.625 54.1875 C81.54175782 56.04189472 85.91335524 58.36552705 90.125 61.5 C91.135625 62.20125 92.14625 62.9025 93.1875 63.625 C101.87319315 71.19835643 106.57969195 83.33670722 108.125 94.5 C108.22567933 97.27921541 108.28202387 100.0337677 108.28613281 102.81274414 C108.29358017 104.03096107 108.29358017 104.03096107 108.30117798 105.27378845 C108.31571245 107.94425316 108.32258485 110.61465859 108.328125 113.28515625 C108.33388099 115.14790345 108.33963867 117.01065064 108.34539795 118.87339783 C108.35588126 122.77115147 108.36174224 126.66888464 108.36523438 130.56665039 C108.37073183 135.55905102 108.3947977 140.55118069 108.42320633 145.54349613 C108.44182842 149.38765763 108.44703795 153.23175355 108.44857025 157.07595634 C108.45159523 158.91674732 108.45961856 160.75753718 108.47275543 162.59828377 C108.48981675 165.17128367 108.48793629 167.74361682 108.48144531 170.31665039 C108.4906601 171.07470978 108.49987488 171.83276917 108.5093689 172.61380005 C108.47396818 177.09512779 107.87605544 179.93093634 105.125 183.5 C100.23087449 187.3678011 95.47528902 187.04556393 89.4609375 186.92578125 C84.73376887 186.32243069 83.09958061 185.15448475 80.125 181.5 C78.95216046 177.98148139 78.97270225 174.80310548 78.96728516 171.14208984 C78.96220444 170.3953299 78.95712372 169.64856995 78.95188904 168.87918091 C78.94118973 167.25700426 78.93256783 165.63481289 78.92576981 164.0126152 C78.91396207 161.43904733 78.89450182 158.86564586 78.87265015 156.29214478 C78.81111574 148.97460533 78.75711134 141.65708128 78.72363281 134.33935547 C78.70259802 129.86183771 78.66721972 125.38462102 78.62287521 120.90727615 C78.60877909 119.20660591 78.60000731 117.50588238 78.59682083 115.80515671 C78.57381644 104.6971246 78.50241667 94.32410788 71.08203125 85.296875 C63.88941408 78.6928752 54.90815562 77.81736589 45.57177734 77.97827148 C35.54680419 78.44869212 29.04725701 82.31089862 22.125 89.5 C17.07538696 95.87845858 15.87729773 102.15605944 15.86962891 110.17602539 C15.86419823 111.27500908 15.86419823 111.27500908 15.85865784 112.39619446 C15.85180549 113.97465337 15.84925053 115.55313576 15.85060501 117.13160896 C15.85157636 119.63334613 15.83855822 122.13466084 15.82162476 124.63633728 C15.77552503 131.74458623 15.75073901 138.85278812 15.74414062 145.96118164 C15.73912032 150.32014509 15.71485198 154.67866171 15.67881393 159.03747368 C15.66903523 160.69318393 15.66667346 162.34895575 15.67198563 164.00468636 C15.67907349 166.32139922 15.66174302 168.63678193 15.63916016 170.95336914 C15.6348851 172.92691124 15.6348851 172.92691124 15.63052368 174.94032288 C15.04180824 179.08580007 13.71366951 181.25107953 11.125 184.5 C6.20640817 188.14144674 -1.10760716 187.16829581 -6.875 186.5 C-9.8050833 185.15639919 -10.78820527 184.06377639 -12.875 181.5 C-14.02741562 178.04275315 -14.00379914 175.36758329 -14.00871277 171.71902466 C-14.01097833 171.02578531 -14.01324388 170.33254596 -14.01557809 169.61829937 C-14.02191999 167.28994968 -14.02108861 164.96165817 -14.02026367 162.63330078 C-14.02325505 160.96611455 -14.02665753 159.29892901 -14.03044128 157.63174438 C-14.03928781 153.09866934 -14.04161968 148.56561315 -14.04225707 144.03253031 C-14.04320582 140.25017944 -14.04688375 136.46783298 -14.05042917 132.68548381 C-14.05857626 123.76248824 -14.06101317 114.83950277 -14.06030273 105.91650391 C-14.05970192 96.70806477 -14.07025397 87.4996842 -14.0860464 78.29125988 C-14.09911671 70.3888484 -14.10448684 62.48645606 -14.10384732 54.58403385 C-14.10359218 49.86275543 -14.1064524 45.14152905 -14.11702538 40.42026138 C-14.12669775 35.97977604 -14.12679145 31.53939257 -14.11950874 27.09890366 C-14.11846182 25.46909181 -14.12083218 23.83927366 -14.1268692 22.20947266 C-14.13457698 19.98450912 -14.12995252 17.75989846 -14.12223816 15.53494263 C-14.12278293 14.28980959 -14.12332769 13.04467655 -14.12388897 11.76181221 C-13.81235896 7.67905836 -13.02764178 4.75742739 -10.2421875 1.71875 C-6.88149319 -0.01150845 -3.69432842 -0.01355717 0 0 Z " fill="#DA7352" transform="translate(1500.875,352.5)"/>
<path d="M0 0 C0.71671875 -0.020625 1.4334375 -0.04125 2.171875 -0.0625 C6.75200197 -0.0961774 9.59506215 0.46430767 13.25 3.25 C16.51049403 6.63589765 17.73751426 10.89404107 19.25 15.25 C22.7574835 25.17015537 26.2679995 35.00756745 30.6875 44.5625 C33.5029084 50.68407606 35.8761039 56.94689655 38.25 63.25 C39.06110657 65.35470419 39.87361108 67.45887018 40.6875 69.5625 C41.09226562 70.61953125 41.49703125 71.6765625 41.9140625 72.765625 C42.62373942 74.61659522 43.33453905 76.46715133 44.05371094 78.31445312 C44.89602599 80.47818033 45.72974693 82.64507736 46.5625 84.8125 C46.82925537 85.49159424 47.09601074 86.17068848 47.37084961 86.87036133 C48.66460341 90.26151936 49.25 92.56196639 49.25 96.25 C49.91 96.25 50.57 96.25 51.25 96.25 C51.36287354 95.40566406 51.47574707 94.56132812 51.59204102 93.69140625 C52.30209087 89.97754252 53.43202172 86.72114752 54.77734375 83.1875 C55.16812607 82.15490807 55.16812607 82.15490807 55.56680298 81.10145569 C56.43424341 78.81525113 57.31031712 76.53248283 58.1875 74.25 C58.80407852 72.6373356 59.42053074 71.02462291 60.03686523 69.41186523 C61.37398838 65.9185302 62.71629539 62.42723322 64.06152344 58.93701172 C65.57998496 54.9961196 67.09012111 51.05215985 68.59472656 47.10595703 C70.59388855 41.86383864 72.60577966 36.62676268 74.62625122 31.39282227 C75.41382357 29.34773976 76.19761052 27.30119525 76.97750854 25.25317383 C78.07932107 22.36355625 79.19601379 19.48011182 80.31640625 16.59765625 C80.63993073 15.73979019 80.9634552 14.88192413 81.29678345 13.99806213 C83.40680904 8.62830412 85.81543603 2.96728199 91.25 0.25 C93.8517412 0.04582748 96.39518718 -0.07365064 99 -0.125 C99.70382812 -0.16238281 100.40765625 -0.19976562 101.1328125 -0.23828125 C104.92646511 -0.30174384 107.61322239 0.06379219 110.765625 2.2734375 C113.32392925 5.33857561 114.08123539 6.92084601 113.75244141 10.90527344 C112.66419743 15.98374535 110.5144954 20.63567108 108.4375 25.375 C107.90204503 26.62761884 107.36833649 27.88098536 106.83618164 29.13500977 C105.95781943 31.203892 105.07815008 33.27214487 104.19346619 35.33833313 C100.5076058 43.94925895 96.95248197 52.6138871 93.38702393 61.275177 C91.35830516 66.20070136 89.32322638 71.12359754 87.2890625 76.046875 C84.31611106 83.24489718 81.34461452 90.44351836 78.37443542 97.64268494 C76.67812214 101.75404951 74.98130953 105.86520793 73.28445435 109.97634888 C72.48527497 111.91299316 71.68633527 113.84973637 70.88766479 115.78659058 C68.70196602 121.08705152 66.51162697 126.38554373 64.31427002 131.68118286 C63.59054134 133.42803902 62.86872855 135.1756899 62.14862061 136.92404175 C61.07628696 139.52679187 59.99776956 142.12690297 58.91796875 144.7265625 C58.59963577 145.5031572 58.2813028 146.27975189 57.95332336 147.07987976 C55.45520774 153.06586639 52.4827762 158.29774528 48.25 163.25 C47.32767578 164.33667969 47.32767578 164.33667969 46.38671875 165.4453125 C38.94138791 173.53222495 29.53901923 177.73890372 18.62890625 178.50390625 C11.61584823 178.75409626 6.94262665 178.87421578 1.25 174.25 C-1.94308786 169.46036822 -1.06502999 164.85140243 0 159.4375 C1.37889265 155.92132374 2.04243207 155.0867661 5.25 153.25 C8.203125 152.9140625 8.203125 152.9140625 11.5 152.875 C17.6758442 152.45407654 22.02955113 152.0290377 26.25 147.25 C30.26756665 141.31972226 35.06332719 133.71435721 34.5 126.3125 C33.72490363 123.48285749 32.69440965 120.87097551 31.48046875 118.203125 C29.04544318 112.80086104 26.67640101 107.37121427 24.3125 101.9375 C23.89548828 100.98166016 23.47847656 100.02582031 23.04882812 99.04101562 C20.5429111 93.28166691 18.09737846 87.5006804 15.69018555 81.69946289 C12.90517721 75.02894539 10.0643522 68.38199887 7.23336792 61.730896 C6.10719955 59.08314917 4.98313895 56.43451622 3.85961914 53.78564453 C-0.77446397 42.85985978 -0.77446397 42.85985978 -5.47961426 31.96456909 C-6.27907121 30.1302386 -7.07395048 28.29391511 -7.86865234 26.45751953 C-8.80412031 24.29838229 -9.74794476 22.14283866 -10.70166016 19.99169922 C-14.57110711 11.01988583 -14.57110711 11.01988583 -13.75 6.25 C-11.3125 3.4375 -11.3125 3.4375 -8.75 1.25 C-6.72363933 -0.77636067 -2.77022651 0.01950864 0 0 Z " fill="#DA7352" transform="translate(665.75,406.75)"/>
<path d="M0 0 C3.40784708 2.54273324 5.73391152 4.58741048 6.5625 8.9375 C5.71766373 14.64014485 2.09341467 19.28158533 -1.9375 23.3125 C-9.52869614 24.39695659 -13.00650295 22.29522419 -19.20703125 18.0703125 C-28.52649822 12.07065565 -40.94555872 11.81835446 -51.6328125 13.81640625 C-56.06386591 15.29061604 -59.32229645 17.47141979 -61.9375 21.3125 C-62.63581711 24.7869138 -62.6470142 27.83931355 -61.9375 31.3125 C-56.51945075 38.80215632 -47.46918872 40.42480699 -39 42.6875 C-10.90094691 50.41174688 -10.90094691 50.41174688 -0.9375 57.3125 C-0.03 57.910625 0.8775 58.50875 1.8125 59.125 C7.74394161 64.89167934 11.64522243 71.71759471 12.3984375 80.01171875 C12.51345764 91.75527499 10.90199585 100.95343139 3.10546875 110.24609375 C-8.28922613 121.77151171 -22.901832 125.48287442 -38.6550293 125.69335938 C-57.79534043 125.66103914 -76.18032336 122.61526701 -91.375 109.9375 C-95.00232118 106.22170757 -95.44605621 103.83136823 -95.4296875 98.7734375 C-94.52470879 94.24854394 -91.30161462 91.29605867 -87.9375 88.3125 C-84.81861322 86.75305661 -82.3920855 87.02933725 -78.9375 87.3125 C-76.41838628 88.54829164 -74.26209091 89.78304079 -71.9375 91.3125 C-70.31914301 92.34383232 -68.69365779 93.36403513 -67.0625 94.375 C-65.92167969 95.10396484 -65.92167969 95.10396484 -64.7578125 95.84765625 C-57.22437814 99.7604511 -50.37382343 100.81408809 -41.9375 100.75 C-41.00421875 100.76998047 -40.0709375 100.78996094 -39.109375 100.81054688 C-32.66790403 100.80604864 -27.48024719 99.69965206 -21.9375 96.3125 C-18.19619443 92.38772677 -18.19619443 92.38772677 -16.84765625 87.32421875 C-17.13226826 82.98206115 -17.45201419 80.87267594 -20.375 77.5 C-28.47508683 71.89334569 -38.69168524 69.96660458 -48.0625 67.5625 C-78.19944965 59.58859697 -78.19944965 59.58859697 -85.9375 48.3125 C-91.8686335 38.07777358 -93.7917275 28.19120542 -90.75 16.53125 C-86.41826523 4.70228198 -78.22171482 -2.1768037 -67.06640625 -7.3984375 C-46.2400398 -15.97858847 -18.70921603 -12.74278495 0 0 Z " fill="#DA7353" transform="translate(1351.9375,415.6875)"/>
<path d="M0 0 C1.04800781 -0.00386719 1.04800781 -0.00386719 2.1171875 -0.0078125 C6.56136108 0.07603983 9.4820973 0.76959111 13 3.5 C16.46733202 8.43832136 18.12166948 13.62255424 19.94140625 19.34375 C20.95551678 22.36737107 22.11576156 25.25866428 23.375 28.1875 C25.78557118 33.83194512 27.82542179 39.5661647 29.83935547 45.35986328 C31.42575395 49.91067153 33.11069763 54.39643986 34.94140625 58.85546875 C36.33580029 62.33888118 37.63283049 65.85731561 38.9375 69.375 C41.13682525 75.2903786 43.4562352 81.13852762 45.921875 86.94921875 C46.98053382 89.45394415 47.99797244 91.97215774 49 94.5 C51.7214281 91.30829679 52.80927368 88.39400364 53.9375 84.375 C55.38792753 79.43361951 57.03607308 74.70417751 59.00390625 69.94921875 C60.0477821 67.38251225 61.00058403 64.79506132 61.9375 62.1875 C64.45533681 55.19680015 67.06747229 48.23485456 69.87548828 41.35498047 C71.83064443 36.55169291 73.65004103 31.72199244 75.3671875 26.828125 C75.98400391 25.08982422 75.98400391 25.08982422 76.61328125 23.31640625 C77.45848135 20.92734219 78.29172133 18.53401506 79.11328125 16.13671875 C83.3056971 4.44758422 83.3056971 4.44758422 89 0.5 C92.01573461 -0.03325177 94.09712619 -0.22032101 97.0625 -0.0625 C97.75666016 -0.06056641 98.45082031 -0.05863281 99.16601562 -0.05664062 C103.57524514 0.05641654 106.5111991 0.79217838 110 3.5 C112.33474264 7.00211396 112.14364751 8.7770671 111.57519531 12.84960938 C110.44965006 18.03590786 108.38415888 22.85302795 106.375 27.75 C105.88773438 28.96324951 105.40046875 30.17649902 104.8984375 31.42651367 C103.55855356 34.76134123 102.20455149 38.09026588 100.84753418 41.41815186 C99.42494216 44.91254846 98.01401045 48.41165014 96.6015625 51.91015625 C94.78617241 56.40475943 92.96681475 60.89765596 91.13476562 65.38549805 C87.80684232 73.5422112 84.51236689 81.71020323 81.28094482 89.90571594 C79.57420682 94.23118335 77.85651789 98.55226687 76.13818359 102.87313843 C75.30026408 104.98876778 74.46752384 107.10645625 73.64013672 109.22622681 C72.47907057 112.19922689 71.30008696 115.1645386 70.1171875 118.12890625 C69.7750119 119.01886292 69.4328363 119.90881958 69.08029175 120.82574463 C67.1478465 125.61165622 65.57439784 128.72015948 61 131.5 C56.90073038 132.86642321 53.04567365 132.84298214 48.75 132.9375 C47.91597656 132.98326172 47.08195313 133.02902344 46.22265625 133.07617188 C41.89460103 133.15430788 38.74056862 132.83782167 35.19921875 130.22265625 C30.798176 125.8516875 29.09847215 120.23449253 27.0625 114.5 C26.12080396 111.9771681 25.17471703 109.45639927 24.22265625 106.9375 C23.97174225 106.268396 23.72082825 105.59929199 23.46231079 104.90991211 C20.53726314 97.16308405 17.28654965 89.5566613 14.04000854 81.94036865 C7.93356263 67.61166023 2.03054338 53.23086709 -3.578125 38.69921875 C-5.15099563 34.63134105 -6.78288664 30.59778646 -8.484375 26.58203125 C-9.06058594 25.206521 -9.06058594 25.206521 -9.6484375 23.80322266 C-10.35346924 22.12908479 -11.0710838 20.460156 -11.8046875 18.79833984 C-13.8063383 14.00972672 -14.60047512 10.65229874 -13 5.5 C-9.3745018 0.39134345 -5.96491928 -0.24211849 0 0 Z " fill="#DA7252" transform="translate(518,406.5)"/>
<path d="M0 0 C0.68578125 -0.01095703 1.3715625 -0.02191406 2.078125 -0.03320312 C7.21684875 0.04034731 10.26292274 1.05143445 14 4.5625 C15.87048624 7.85809986 17.13814015 11.32192094 18.4375 14.875 C18.84871094 15.94951416 19.25992188 17.02402832 19.68359375 18.13110352 C20.6133868 20.56488412 21.5356362 23.00043525 22.44873047 25.44042969 C24.1452433 29.96418944 25.88586036 34.47056694 27.62890625 38.9765625 C30.21140153 45.65781174 32.78520302 52.34228718 35.34765625 59.03125 C38.53722964 67.35688726 41.73517702 75.6792582 44.9375 84 C45.73833285 86.0820114 46.53912032 88.16404026 47.33984375 90.24609375 C47.66331787 91.08712646 47.98679199 91.92815918 48.32006836 92.79467773 C48.5444458 93.37805908 48.76882324 93.96144043 49 94.5625 C51.15710088 92.40539912 51.71114533 91.05466487 52.74902344 88.22509766 C53.25235451 86.86620422 53.25235451 86.86620422 53.76585388 85.4798584 C54.30714684 83.99322693 54.30714684 83.99322693 54.859375 82.4765625 C55.24057999 81.44374146 55.62178497 80.41092041 56.01454163 79.34680176 C56.83596282 77.1206898 57.65513806 74.89374809 58.47232056 72.66607666 C60.61056435 66.84454999 62.77398435 61.0323765 64.93359375 55.21875 C65.79943607 52.88546107 66.66516025 50.55212829 67.53076172 48.21875 C67.9470282 47.09694336 68.36329468 45.97513672 68.79217529 44.81933594 C69.56686973 42.73041306 70.34089602 40.64124219 71.11407471 38.55175781 C73.0374726 33.35529896 74.97565718 28.16506705 76.94421387 22.98553467 C77.51875455 21.46493638 78.08681753 19.94187329 78.64807129 18.4163208 C79.42197679 16.31511198 80.21772144 14.22350216 81.01953125 12.1328125 C81.45370361 10.97539551 81.88787598 9.81797852 82.33520508 8.62548828 C84.44253576 4.7482965 86.38391435 3.08136641 90 0.5625 C92.91445733 0.08948828 95.11931488 -0.1001742 98 0 C98.68578125 -0.01095703 99.3715625 -0.02191406 100.078125 -0.03320312 C105.12692036 0.03906017 108.24912622 1.19766085 112 4.5625 C114.0889838 11.17225899 111.53970923 17.51494365 108.5625 23.41015625 C106.66192281 27.24457073 105.04789892 31.16194635 103.4375 35.125 C103.15704834 35.80900879 102.87659668 36.49301758 102.58764648 37.19775391 C101.0715501 40.90200798 99.57748442 44.61470615 98.09375 48.33203125 C95.77865634 54.1289105 93.42107149 59.90820172 91.0625 65.6875 C90.09102256 68.07026224 89.11967411 70.45307708 88.1484375 72.8359375 C87.89601791 73.45521118 87.64359833 74.07448486 87.38352966 74.71252441 C84.59382584 81.55753033 81.80830195 88.4042336 79.02511597 95.25189209 C78.4771987 96.59981607 77.92912951 97.9476783 77.38088989 99.29547119 C76.85793667 100.58115641 76.33535445 101.8669926 75.81315613 103.15298462 C75.30321148 104.40693826 74.79152634 105.66018563 74.2780304 106.91268921 C72.95126802 110.16046217 71.67258609 113.41837071 70.45556641 116.70898438 C70.19898758 117.38834045 69.94240875 118.06769653 69.67805481 118.76763916 C68.969282 120.65009007 68.27575898 122.53826255 67.58325195 124.42675781 C65.32626415 128.89688137 62.71879462 130.98956846 58 132.5625 C54.90108889 132.86292211 51.79928201 132.88583268 48.6875 132.9375 C47.42389648 132.99357422 47.42389648 132.99357422 46.13476562 133.05078125 C45.31041016 133.06238281 44.48605469 133.07398438 43.63671875 133.0859375 C42.89123779 133.10575684 42.14575684 133.12557617 41.37768555 133.14599609 C37.76565015 132.25958429 35.39266857 130.30750998 33 127.5625 C31.37946664 124.8105808 30.23339376 121.94174899 29.08984375 118.96484375 C28.75505508 118.13473282 28.42026642 117.30462189 28.07533264 116.44935608 C27.01322278 113.80569362 25.97495514 111.15342135 24.9375 108.5 C24.23791876 106.74480788 23.53676026 104.99024356 22.83398438 103.23632812 C21.47720833 99.84544781 20.12842315 96.45157077 18.78613281 93.05493164 C17.0151338 88.58407948 15.17508458 84.14478406 13.31176758 79.71166992 C11.62660431 75.66608626 9.98015584 71.60533516 8.3359375 67.54296875 C8.01393875 66.74747116 7.69194 65.95197357 7.36018372 65.13237 C6.02616702 61.83504603 4.69319675 58.53729961 3.36035156 55.23950195 C2.37363949 52.79875072 1.38606659 50.35834904 0.3984375 47.91796875 C0.10149994 47.18241257 -0.19543762 46.44685638 -0.50137329 45.68901062 C-2.28205425 41.28972763 -4.12058511 36.92051489 -6 32.5625 C-7.26913134 29.49414282 -8.53157699 26.42310859 -9.79296875 23.3515625 C-10.99235783 20.44194085 -10.99235783 20.44194085 -12.8125 17.375 C-14.43705239 13.52737591 -15.24884752 9.61949054 -14 5.5625 C-9.68444816 0.89452251 -6.38036575 -0.22187362 0 0 Z " fill="#DA7353" transform="translate(969,406.4375)"/>
<path d="M0 0 C0.70382812 -0.03738281 1.40765625 -0.07476562 2.1328125 -0.11328125 C6.14337357 -0.18037242 8.54024077 0.20194082 11.703125 2.7734375 C15.51252946 6.66463899 15.37094203 8.55833315 15.34765625 13.9140625 C15.34443359 15.21601563 15.34121094 16.51796875 15.33789062 17.859375 C15.32953466 19.23958399 15.32106971 20.61979232 15.3125 22 C15.30748501 23.38801926 15.3029221 24.77604022 15.29882812 26.1640625 C15.28700976 29.56775132 15.27053434 32.97135439 15.25 36.375 C15.95084717 36.34881592 16.65169434 36.32263184 17.3737793 36.2956543 C20.5614565 36.1914646 23.74877526 36.12660417 26.9375 36.0625 C28.04029297 36.02060547 29.14308594 35.97871094 30.27929688 35.93554688 C38.27667447 35.81474057 38.27667447 35.81474057 41.10009766 37.43994141 C44.51866206 40.78961786 45.41672201 43.55863194 45.5 48.1875 C45.45135956 52.40097806 45.11735676 55.09802085 42.25 58.375 C39.04682133 60.38824991 36.57599982 60.61195555 32.828125 60.5703125 C31.80332031 60.56386719 30.77851562 60.55742187 29.72265625 60.55078125 C28.65917969 60.53402344 27.59570312 60.51726562 26.5 60.5 C25.42105469 60.49097656 24.34210938 60.48195313 23.23046875 60.47265625 C20.57008722 60.44911305 17.91015664 60.41622799 15.25 60.375 C15.28807822 70.18077224 15.34747091 79.98616329 15.43390274 89.79163551 C15.47337293 94.3449915 15.5055636 98.89815422 15.52099609 103.45166016 C15.53616579 107.84799746 15.5706166 112.24380346 15.61830902 116.63990402 C15.63311964 118.31513215 15.64104083 119.99043614 15.64188385 121.66572952 C15.64425632 124.01682087 15.67135578 126.36644721 15.70410156 128.71728516 C15.6990712 129.40636963 15.69404083 130.0954541 15.68885803 130.80541992 C15.79474832 135.73523938 17.17180018 138.57098767 20.25 142.375 C23.77991078 144.13995539 28.21267474 143.62172651 32.1328125 143.62890625 C37.78023017 143.82835037 40.2780591 145.35432363 44.25 149.375 C45.99103202 152.85706404 45.69222386 156.56802942 45.25 160.375 C43.35484392 164.63910117 42.00238329 166.02078809 37.7734375 168.01171875 C32.66968506 169.80718318 27.73895937 169.85308016 22.375 169.8125 C21.44558594 169.83248047 20.51617188 169.85246094 19.55859375 169.87304688 C10.01300908 169.86639026 2.00671794 167.02223346 -4.99609375 160.4296875 C-11.55425332 152.74685468 -14.07449568 143.06798286 -13.97705078 133.14477539 C-13.97734283 132.35371399 -13.97763489 131.56265259 -13.97793579 130.74761963 C-13.97655226 128.15585013 -13.96103755 125.56437498 -13.9453125 122.97265625 C-13.94157889 121.16662249 -13.93873356 119.36058669 -13.93673706 117.55455017 C-13.92912801 112.81825088 -13.90950312 108.0820757 -13.8873291 103.3458252 C-13.86681172 98.50595783 -13.85772277 93.66607027 -13.84765625 88.82617188 C-13.82625452 79.34239361 -13.79215172 69.85870716 -13.75 60.375 C-14.91917969 60.44460938 -16.08835937 60.51421875 -17.29296875 60.5859375 C-18.84108821 60.64223275 -20.38927002 60.69683102 -21.9375 60.75 C-22.70642578 60.80027344 -23.47535156 60.85054688 -24.26757812 60.90234375 C-29.86581126 61.04650426 -29.86581126 61.04650426 -32.39315796 59.12709045 C-35.58862286 55.44968248 -36.4317997 52.62343444 -36.375 47.8125 C-36.38789062 46.71808594 -36.40078125 45.62367188 -36.4140625 44.49609375 C-35.51722303 40.28094826 -34.26972044 38.84930413 -30.75 36.375 C-27.77842069 35.80045122 -24.94948399 35.89839358 -21.9375 36.0625 C-21.14923828 36.08505859 -20.36097656 36.10761719 -19.54882812 36.13085938 C-17.61506071 36.18945839 -15.68227833 36.27913173 -13.75 36.375 C-13.77094727 35.5279248 -13.79189453 34.68084961 -13.81347656 33.80810547 C-13.88194055 30.64359607 -13.93193987 27.47946609 -13.96972656 24.31445312 C-13.98975319 22.94876632 -14.01698332 21.58316431 -14.05175781 20.21777344 C-14.10066432 18.24712898 -14.12091347 16.27584017 -14.140625 14.3046875 C-14.16157227 13.12116699 -14.18251953 11.93764648 -14.20410156 10.71826172 C-13.65560772 6.68004952 -12.273761 4.53410111 -9.75 1.375 C-6.64979734 -0.17510133 -3.40092097 0.06704324 0 0 Z " fill="#DB7453" transform="translate(1415.75,370.625)"/>
<path d="M0 0 C3.4512945 2.66429573 4.85771838 4.10608107 5.55175781 8.46655273 C5.50293457 10.43023804 5.50293457 10.43023804 5.453125 12.43359375 C5.43895538 13.50517479 5.43895538 13.50517479 5.42449951 14.59840393 C5.39005896 16.87928369 5.32154426 19.15751016 5.25 21.4375 C5.18293305 24.41520802 5.12900459 27.39306906 5.078125 30.37109375 C5.06430283 31.10081894 5.05048065 31.83054413 5.03623962 32.5823822 C4.8958557 41.99783696 5.37871938 51.35665713 7.4375 60.5625 C8.3949931 65.05535223 9.27458508 69.5167977 9.9375 74.0625 C11.11972853 82.09764642 12.62672861 90.07244293 14.09765625 98.05859375 C14.33452148 99.35591431 14.33452148 99.35591431 14.57617188 100.67944336 C14.91351193 102.52645787 15.2548889 104.37273497 15.59765625 106.21875 C16.57978982 113.00786752 17.55505413 120.29119603 14.0625 126.375 C9.79913593 128.63719318 6.63727371 128.91171294 2 128 C-19.24206069 121.19957312 -46.71414528 108.25828649 -58.9375 88.9375 C-63.62450391 75.52910908 -57.87394605 61.00413031 -52.1015625 48.90625 C-46.08483919 36.92085307 -38.16519039 26.73487316 -29 17 C-28.17435547 16.07767578 -28.17435547 16.07767578 -27.33203125 15.13671875 C-20.70554883 8.01938578 -10.17777738 -1.22133329 0 0 Z " fill="#DB7353" transform="translate(224,361)"/>
<path d="M0 0 C3.05109065 3.28578993 3.59972016 5.16394562 3.4375 9.625 C0.25538331 13.84566652 -4.01796569 15.35840091 -8.75 17.3125 C-27.60905979 25.43269201 -43.75730197 35.50233558 -59.5625 48.625 C-60.06104492 49.03862793 -60.55958984 49.45225586 -61.07324219 49.87841797 C-66.94914929 54.7666726 -72.71529127 59.73170447 -78.3125 64.9375 C-90.31974315 75.86426554 -90.31974315 75.86426554 -96.9375 76.25 C-100.5625 75.625 -100.5625 75.625 -102.375 74.1875 C-105.6802312 67.05515899 -107.24904619 59.82589502 -108.25 52.0625 C-108.37592529 51.09795898 -108.50185059 50.13341797 -108.6315918 49.13964844 C-110.03451756 37.69967692 -109.89382186 26.58913425 -108.75 15.125 C-108.68014893 14.39506836 -108.61029785 13.66513672 -108.53833008 12.91308594 C-107.60647632 4.81662127 -105.10017544 -3.57190726 -98.65625 -8.97265625 C-72.58563892 -27.65353426 -24.61620179 -17.78158577 0 0 Z " fill="#DA7252" transform="translate(344.5625,358.375)"/>
<path d="M0 0 C2.7746149 0.86764833 5.33117825 2.03094688 7.9375 3.3125 C9.04013184 3.84556763 9.04013184 3.84556763 10.16503906 4.3894043 C26.8712027 12.7407005 49.21362315 27.39861741 58.125 44.4375 C61.95170899 60.01767232 55.0202155 75.0021392 47.13867188 88.19775391 C43.82321132 93.44533749 39.96672301 98.23619607 36 103 C34.93845703 104.30904297 34.93845703 104.30904297 33.85546875 105.64453125 C26.27230712 114.57831165 13.56513389 127.31653644 1.55859375 129.4296875 C-4.14408942 129.74090937 -4.14408942 129.74090937 -6.7734375 127.46484375 C-8.52018085 123.95466842 -8.11360172 120.78694626 -7.75 117 C-7.69714844 116.2884375 -7.64429688 115.576875 -7.58984375 114.84375 C-7.16810969 109.58678592 -7.16810969 109.58678592 -6.48632812 107.20703125 C-5.19776784 101.35934803 -5.756006 94.98181633 -5.75 89 C-5.74799088 87.82917877 -5.74799088 87.82917877 -5.74594116 86.63470459 C-5.75259226 68.67996461 -7.59162956 51.15488091 -10.28588867 33.40576172 C-11.36435498 26.27411644 -12.32345649 19.21903987 -12.5 12 C-12.5309375 10.7625 -12.561875 9.525 -12.59375 8.25 C-11.28083559 1.0635211 -6.84421804 -0.96530329 0 0 Z " fill="#D97252" transform="translate(337,446)"/>
<path d="M0 0 C17.79774132 14.80816782 28.11899817 40.62874145 30.48828125 63.2578125 C30.66863575 66.90478164 30.71855935 70.54429511 30.73828125 74.1953125 C30.75890625 75.14599609 30.77953125 76.09667969 30.80078125 77.07617188 C30.83441984 83.17737131 30.17334915 87.74338566 27.48828125 93.2578125 C24.48828125 95.2578125 24.48828125 95.2578125 21.5390625 95.1171875 C18.06373977 94.13822335 17.01039689 93.2012217 14.67578125 90.5078125 C4.26536087 79.53844338 -8.33584524 71.23208045 -21.66113281 64.24121094 C-23.42819528 63.30219674 -25.17004469 62.31618835 -26.91015625 61.328125 C-33.46816223 57.62832986 -39.98229088 54.84598019 -47.11328125 52.4375 C-50.29493383 51.33306428 -53.35819274 50.09200872 -56.44921875 48.7578125 C-62.26991376 46.25875233 -68.20299189 44.39033548 -74.26171875 42.56640625 C-77.61443085 41.21645607 -79.31222749 40.09725353 -81.51171875 37.2578125 C-82.07421875 33.8203125 -82.07421875 33.8203125 -81.51171875 30.2578125 C-79.57421875 27.8203125 -79.57421875 27.8203125 -76.51171875 25.2578125 C-75.91488281 24.68546875 -75.31804687 24.113125 -74.703125 23.5234375 C-57.36355678 7.13443162 -23.03792651 -15.97965043 0 0 Z " fill="#DA7353" transform="translate(373.51171875,381.7421875)"/>
<path d="M0 0 C3.510971 0.81063704 5.74682728 2.74956886 8.4296875 5.02734375 C28.32998187 21.02027438 52.17278622 30.19736358 76.0546875 38.52734375 C79.21618062 39.6376099 82.37640906 40.75120844 85.5345459 41.87098694 C87.47457085 42.5581666 89.41661192 43.23969049 91.36096191 43.91453552 C96.68425416 45.79210347 101.48918398 47.52434023 105.5546875 51.58984375 C106.1303829 55.86643815 106.05952832 57.88712077 103.51171875 61.43359375 C100.31937239 65.0487637 96.64399817 67.94254135 92.8046875 70.83984375 C92.0617041 71.40195557 91.3187207 71.96406738 90.55322266 72.54321289 C62.21858057 93.58984375 62.21858057 93.58984375 47.5546875 93.58984375 C47.5546875 94.24984375 47.5546875 94.90984375 47.5546875 95.58984375 C37.44263977 96.09172847 31.32321031 95.21986112 23.5546875 88.52734375 C11.00616024 76.61296871 3.47606036 62.62087759 -2.4453125 46.58984375 C-2.92484375 45.336875 -2.92484375 45.336875 -3.4140625 44.05859375 C-6.82035251 34.65723333 -7.66494747 25.08358231 -7.8828125 15.15234375 C-7.91721436 14.28762451 -7.95161621 13.42290527 -7.98706055 12.53198242 C-8.0166537 8.13889975 -7.85305131 6.16010279 -5.23046875 2.4921875 C-2.4453125 0.58984375 -2.4453125 0.58984375 0 0 Z " fill="#DA7252" transform="translate(166.4453125,463.41015625)"/>
<path d="M0 0 C3.44846056 1.31041501 4.79428219 2.36535324 7.125 5.1875 C10.35153044 14.1842197 10.57756277 23.74516686 10.46118164 33.20141602 C10.43747093 35.25251504 10.44066855 37.30231262 10.44726562 39.35351562 C10.41919005 53.28891476 9.44826861 69.97978809 0.9375 81.75 C-2.94928431 85.1185464 -7.17415145 87.16025906 -11.875 89.1875 C-12.679375 89.54328125 -13.48375 89.8990625 -14.3125 90.265625 C-33.82893756 97.28678242 -61.79586486 92.71969738 -80.15625 84.47265625 C-81.0534375 84.04855469 -81.950625 83.62445312 -82.875 83.1875 C-84.25171875 82.56681641 -84.25171875 82.56681641 -85.65625 81.93359375 C-90.55725505 79.63444579 -94.59285586 77.56369219 -97.875 73.1875 C-98.5 70.6875 -98.5 70.6875 -97.875 68.1875 C-93.99925829 63.53211199 -90.02385183 61.67999058 -84.5625 59.5 C-70.73110351 53.65584725 -58.62778208 45.47466346 -46.875 36.1875 C-45.96363281 35.46949219 -45.05226563 34.75148438 -44.11328125 34.01171875 C-36.1500109 27.61611075 -28.70912984 20.69839679 -21.24609375 13.734375 C-6.67127378 0.32280357 -6.67127378 0.32280357 0 0 Z " fill="#DA7454" transform="translate(314.875,498.8125)"/>
</g>
</svg>
