<?xml version="1.0" encoding="UTF-8"?>
<svg version="1.1" xmlns="http://www.w3.org/2000/svg" width="1254" height="1254">
<path d="M0 0 C1.03898437 0.77214844 2.07796875 1.54429687 3.1484375 2.33984375 C11.15385247 8.5796809 20.13538567 16.51833306 22 27 C22.76346329 34.68295335 22.93481833 41.73144698 18 48 C9.74645326 57.14397087 -0.32995795 60.64516159 -11.875 64.03515625 C-15.50893559 65.15713386 -18.97101213 66.54682975 -22.48046875 68.00390625 C-25.24798833 69.0980419 -28.04323255 70.02296032 -30.875 70.9375 C-49.52460365 77.07534424 -67.60943399 85.92107293 -85 95 C-86.20100342 95.62334229 -86.20100342 95.62334229 -87.42626953 96.25927734 C-108.59971842 107.31728049 -128.6461487 120.13270453 -147.81103516 134.38037109 C-150.10603321 136.07845464 -152.41642111 137.75376516 -154.73046875 139.42578125 C-164.85345263 146.76571223 -174.6046478 154.44622567 -184.18261719 162.48242188 C-186.64181622 164.53593896 -189.13332844 166.54858257 -191.625 168.5625 C-197.24037281 173.14994526 -202.70205056 177.90855966 -208.16796875 182.671875 C-210.63736458 184.82221615 -213.11764334 186.95829919 -215.61328125 189.078125 C-222.59672334 195.01014051 -229.4078753 201.08363193 -236.11328125 207.328125 C-238.99830316 209.99842945 -241.93706368 212.58934259 -244.91015625 215.16015625 C-247.64370994 217.56670539 -250.32096437 220.03321846 -253 222.5 C-260.34359754 229.25343646 -267.87115326 235.77511886 -275.45800781 242.25244141 C-278.42674935 244.78736211 -281.38503737 247.3315222 -284.3125 249.9140625 C-320.82893446 281.98506507 -320.82893446 281.98506507 -342.61328125 281.46875 C-349.92261134 280.96606665 -354.85548764 277.20396742 -359.859375 272.10546875 C-363.82349469 267.28768963 -366.00329653 261.85643989 -368 256 C-368.33902344 255.04480469 -368.67804688 254.08960938 -369.02734375 253.10546875 C-371.4065071 245.96797869 -372.84953915 238.86399683 -373.96118164 231.44335938 C-374.48147918 227.98142427 -375.08364378 224.67761588 -375.96484375 221.28125 C-378.67490503 210.83345244 -379.49201953 199.81426912 -380.75140381 189.10632324 C-380.98797315 187.10190196 -381.23135356 185.09828802 -381.47509766 183.09472656 C-384.03280212 161.14225123 -384.29011431 139.1783236 -384.31007385 117.10383987 C-384.3124617 114.84866725 -384.31777882 112.59351506 -384.32336426 110.33834839 C-384.48677809 20.35267883 -384.48677809 20.35267883 -356 -13 C-355.43925781 -13.66257813 -354.87851562 -14.32515625 -354.30078125 -15.0078125 C-330.07657635 -41.24561629 -290.41128304 -48.85536524 -257 -54.8125 C-255.85644043 -55.01963623 -254.71288086 -55.22677246 -253.53466797 -55.44018555 C-171.45628168 -69.38634126 -66.98865508 -50.09867865 0 0 Z " fill="#DB7051" transform="translate(832,237)"/>
<path d="M0 0 C6.65899362 4.14128225 10.01260827 10.71762355 12.125 18.0625 C12.96481669 29.08853417 11.67364884 40.2675243 10.6875 51.25 C8.67240744 74.01503503 7.85854825 96.64055863 7.8125 119.5 C7.81076027 120.16798992 7.80902054 120.83597984 7.80722809 121.52421188 C7.75922115 142.46921763 8.61758828 163.02149802 11.56895447 183.77668762 C12.06946688 187.46762249 12.42993193 191.16095555 12.76369095 194.87019634 C13.76943491 205.91424408 15.44121836 216.75632503 17.390625 227.66796875 C17.71030577 229.48836254 18.02936147 231.3088662 18.34783936 233.12947083 C19.1807244 237.88034682 20.02242472 242.62961829 20.86602783 247.37860107 C21.70425277 252.10750051 22.53318125 256.83802832 23.36328125 261.56835938 C26.3396886 278.50769062 29.35652776 295.43981501 32.421875 312.36328125 C32.65304016 313.64285202 32.88420532 314.92242279 33.12237549 316.24076843 C34.49515987 323.78191687 35.95201553 331.30180878 37.47032166 338.81469727 C43.18356435 367.15760092 48.61993814 396.71813333 48.75 425.6875 C48.76063477 426.81623535 48.77126953 427.9449707 48.78222656 429.10791016 C48.62358281 438.17426144 46.42281492 446.76017264 39.98046875 453.45703125 C32.02792006 460.33807865 24.38709063 462.29072038 14.09375 461.71875 C5.04055559 460.79021724 -3.46422687 457.37048791 -11.875 454.0625 C-13.71384766 453.3509375 -13.71384766 453.3509375 -15.58984375 452.625 C-20.44308819 450.66656593 -25.13239433 448.48359722 -29.77856445 446.07983398 C-31.95187623 445.02519439 -34.14449788 444.14569531 -36.3984375 443.27734375 C-63.77521166 432.41707388 -89.77039121 417.35047812 -114.875 402.0625 C-116.31673584 401.18706543 -116.31673584 401.18706543 -117.78759766 400.29394531 C-203.03696171 348.33748011 -203.03696171 348.33748011 -213.625 307.75 C-218.28683845 288.31663857 -217.45241519 265.70396752 -212.46923828 246.41503906 C-211.84934076 243.96091725 -211.30691174 241.49854081 -210.77734375 239.0234375 C-206.88869654 221.1947369 -201.240246 203.75984748 -193.875 187.0625 C-193.26800839 185.58709654 -192.66414017 184.11040625 -192.0625 182.6328125 C-176.10703543 143.83297045 -153.74762804 106.35735594 -125.1328125 75.5 C-123.21281129 73.42719593 -121.34503182 71.32666732 -119.5 69.1875 C-106.71019253 54.55358076 -93.12151361 41.14152086 -77.875 29.0625 C-77.11574219 28.43472656 -76.35648438 27.80695313 -75.57421875 27.16015625 C-56.26597111 11.29169727 -26.71588944 -11.75173828 0 0 Z " fill="#DC7051" transform="translate(426.875,251.9375)"/>
<path d="M0 0 C1.33804688 1.07894531 1.33804688 1.07894531 2.703125 2.1796875 C3.24388672 2.61506836 3.78464844 3.05044922 4.34179688 3.49902344 C30.14914467 24.45850267 48.43538005 52.51846879 64.703125 81.1796875 C65.1451123 81.95618652 65.58709961 82.73268555 66.04248047 83.53271484 C91.24110494 128.29200524 105.50371083 178.57445012 112.703125 229.1796875 C112.87303955 230.37271484 112.87303955 230.37271484 113.04638672 231.58984375 C113.6775002 236.11232519 114.22374188 240.63816324 114.703125 245.1796875 C114.81527344 246.23671875 114.92742187 247.29375 115.04296875 248.3828125 C117.23454345 273.24067349 119.09443905 309.71433873 103.609375 331.07421875 C99.73052375 335.35844175 94.93534062 339.80854646 89.015625 340.48828125 C76.96766644 340.95712869 70.40197216 336.19718707 61.79296875 328.25390625 C59.175682 325.656188 56.76552051 322.92625991 54.37890625 320.1171875 C49.93098709 314.97460498 44.94789965 310.49082552 39.8046875 306.0625 C36.79450659 303.36564647 33.98526311 300.4858914 31.171875 297.5859375 C-4.24879157 263.06199666 -48.2973998 237.07564966 -92.546875 215.6796875 C-93.14853485 215.38813782 -93.7501947 215.09658813 -94.37008667 214.79620361 C-102.2460236 210.99035818 -110.20359386 207.49385447 -118.296875 204.1796875 C-120.95056418 203.05153505 -123.59387964 201.90083603 -126.234375 200.7421875 C-126.90839355 200.44779785 -127.58241211 200.1534082 -128.27685547 199.85009766 C-132.52553248 197.98572889 -136.72866928 196.04148047 -140.921875 194.0546875 C-146.32566477 191.53821677 -151.80723786 189.53541211 -157.4375 187.58984375 C-161.9270344 185.99265075 -166.29218786 184.11587158 -170.671875 182.2421875 C-181.64267104 177.56246758 -192.70788293 173.31820904 -204.046875 169.6171875 C-208.43401852 168.18064882 -212.68918843 166.64524668 -216.921875 164.8046875 C-222.36890893 162.46290337 -227.91760777 160.58682032 -233.546875 158.7421875 C-245.14096767 154.94282427 -256.58001475 150.79435372 -267.87109375 146.1640625 C-269.65503297 145.44014513 -271.45135876 144.74656545 -273.25390625 144.0703125 C-284.39116733 139.7554994 -292.27695776 134.33107508 -297.296875 123.1796875 C-299.56533218 114.23111102 -298.70472242 106.29531246 -294.296875 98.1796875 C-288.01371959 88.69274492 -279.72290866 81.50997586 -270.89941406 74.46582031 C-269.20757309 73.10801741 -267.52910676 71.73479344 -265.8515625 70.359375 C-256.63963591 62.84431702 -247.10672734 55.89218276 -237.296875 49.1796875 C-236.66813477 48.74946289 -236.03939453 48.31923828 -235.39160156 47.87597656 C-231.0598375 44.92595542 -226.69088334 42.03605858 -222.296875 39.1796875 C-221.56742676 38.7053125 -220.83797852 38.2309375 -220.08642578 37.7421875 C-208.74267104 30.39803269 -197.19881909 23.5766249 -185.296875 17.1796875 C-184.52972168 16.76525391 -183.76256836 16.35082031 -182.97216797 15.92382812 C-180.68733689 14.69136645 -178.39934865 13.46506459 -176.109375 12.2421875 C-175.42665527 11.87649658 -174.74393555 11.51080566 -174.04052734 11.1340332 C-169.86686097 8.92641867 -165.6554887 6.9953405 -161.296875 5.1796875 C-160.00378436 4.59951756 -158.71192886 4.01657896 -157.421875 3.4296875 C-146.90540063 -1.24229683 -136.39937576 -5.74180156 -125.296875 -8.8203125 C-121.44098768 -10.03760321 -117.60953256 -11.29818513 -113.8515625 -12.79296875 C-106.48610951 -15.68418388 -99.09850009 -17.13796254 -91.33789062 -18.44824219 C-89.41195532 -18.79933374 -87.50163008 -19.23314308 -85.59375 -19.671875 C-54.23215919 -26.69214742 -25.31608848 -19.33652157 0 0 Z " fill="#DC7051" transform="translate(942.296875,324.8203125)"/>
<path d="M0 0 C0.79301514 0.25442871 1.58603027 0.50885742 2.40307617 0.77099609 C29.25608574 9.93858979 55.33525398 25.07709907 78.75 40.875 C80.33195078 41.92720433 81.9139848 42.97928352 83.49609375 44.03125 C93.07235682 50.44516831 102.24207247 57.18951363 111.12451172 64.53320312 C112.61809745 65.76611799 114.12298356 66.98530964 115.62890625 68.203125 C131.76244387 81.26025297 147.04131863 95.10872339 161.75 109.75 C162.44391846 110.43924561 163.13783691 111.12849121 163.8527832 111.83862305 C189.18764527 137.25301021 206.67108056 165.53831601 207.1875 202.25 C207.07027075 219.6883012 202.06073524 236.41434428 196.75 252.875 C196.38777344 254.0403125 196.02554687 255.205625 195.65234375 256.40625 C193.85953004 262.03873355 191.73434837 267.38123051 189.21484375 272.7265625 C188.10765266 275.10628522 187.0424033 277.48894461 186.00390625 279.8984375 C174.99826989 305.36401338 161.25321556 329.56928399 144.75 351.875 C144.24049805 352.56851562 143.73099609 353.26203125 143.20605469 353.9765625 C134.23309946 366.17303079 124.86130955 377.82169298 114.51953125 388.88671875 C112.39083608 391.16893584 110.33185621 393.49486551 108.3125 395.875 C100.83167489 404.51095251 92.48768799 412.52629753 83.75 419.875 C82.41001953 421.04869141 82.41001953 421.04869141 81.04296875 422.24609375 C55.16124163 444.79323689 19.09638258 474.41353203 -17.25878906 472.11767578 C-23.31851187 471.37915635 -28.21705827 468.34832043 -32.25 463.875 C-41.76761964 449.59857054 -34.76096043 427.43798117 -31.65039062 411.875 C-31.24634798 409.88747629 -30.84081782 407.90025441 -30.43383789 405.91333008 C-21.85303274 363.95336149 -18.99248543 322.56190207 -18.94037247 279.7836113 C-18.93753426 277.65074636 -18.9320066 275.51789939 -18.92636108 273.38504028 C-18.90025173 259.82874643 -18.97257297 246.41980502 -20.7590332 232.96606445 C-21.32708058 228.58790629 -21.53324569 224.21714546 -21.71875 219.80859375 C-22.19032608 209.21349385 -23.27995383 198.69635465 -24.40673828 188.15356445 C-24.75506001 184.89009208 -25.09482502 181.6258047 -25.43359375 178.36132812 C-25.65315316 176.27338563 -25.87318701 174.18549297 -26.09375 172.09765625 C-26.19482056 171.12796402 -26.29589111 170.15827179 -26.40002441 169.15919495 C-26.49682495 168.25982712 -26.59362549 167.36045929 -26.69335938 166.43383789 C-26.77694702 165.64731339 -26.86053467 164.86078888 -26.94665527 164.0504303 C-27.24152645 161.93576786 -27.71256207 159.93922652 -28.25 157.875 C-28.41163458 156.46014855 -28.54107465 155.04138495 -28.64453125 153.62109375 C-28.74386963 152.36099487 -28.74386963 152.36099487 -28.84521484 151.07543945 C-28.91691895 150.16366943 -28.98862305 149.25189941 -29.0625 148.3125 C-30.18741331 135.07322068 -32.21163674 121.99896696 -34.25 108.875 C-47.42613459 23.62841271 -47.42613459 23.62841271 -39.796875 11.77734375 C-39.03117188 10.83568359 -39.03117188 10.83568359 -38.25 9.875 C-37.71890625 9.21628906 -37.1878125 8.55757812 -36.640625 7.87890625 C-26.96168482 -2.79900712 -13.22327283 -4.27685368 0 0 Z " fill="#DC7051" transform="translate(828.25,547.125)"/>
<path d="M0 0 C7.24340178 3.79253108 13.5649425 8.86648225 19.9609375 13.9140625 C51.44964029 38.72462429 86.68807567 59.14249315 122.3125 77.3125 C123.79508301 78.07022705 123.79508301 78.07022705 125.30761719 78.84326172 C128.2433496 80.33982521 131.18309281 81.82811591 134.125 83.3125 C135.00148193 83.75730713 135.87796387 84.20211426 136.78100586 84.66040039 C141.78847339 87.16724915 146.83220124 89.40456754 152.0559082 91.42407227 C154.29693755 92.30637301 156.49206821 93.26027988 158.6875 94.25 C164.18223868 96.71878993 169.73950396 99.02664938 175.3125 101.3125 C176.52679688 101.81136719 177.74109375 102.31023437 178.9921875 102.82421875 C184.79503257 105.18754032 190.59284204 107.45728604 196.5625 109.375 C201.38362293 110.93269259 205.8846795 112.87630103 210.46875 115.0234375 C217.60946444 118.26029982 224.9794887 120.91011344 232.4375 123.3125 C237.22682352 124.87327823 241.72527025 126.76763956 246.25390625 128.96875 C248.77722726 130.07733548 251.26687773 131.03557309 253.859375 131.9609375 C262.98818351 135.23759201 271.98336713 138.86661174 281 142.4375 C281.95725983 142.81622253 282.91451965 143.19494507 283.90078735 143.58514404 C298.43744856 149.33933733 312.938556 155.16067642 327.3125 161.3125 C328.09028809 161.64427246 328.86807617 161.97604492 329.66943359 162.31787109 C357.49278889 174.21832955 357.49278889 174.21832955 364.3125 186.3125 C367.78163128 195.14301599 366.8705805 203.66553693 363.3125 212.3125 C356.9273844 225.65194693 342.66795542 236.38381529 331.3125 245.3125 C330.13269652 246.28969388 328.95580233 247.2704069 327.78125 248.25390625 C312.33757509 261.13282097 295.77566146 272.34226579 278.65722656 282.86669922 C276.37481568 284.27407503 274.10525087 285.70053869 271.8359375 287.12890625 C261.25066431 293.71021907 250.32610144 299.54921416 239.25 305.25 C238.54139832 305.6150766 237.83279663 305.9801532 237.10272217 306.35629272 C225.14503938 312.50189198 213.12251112 318.11312487 200.5625 322.9375 C198.58812739 323.69944823 196.61415868 324.46244399 194.640625 325.2265625 C193.71338623 325.58532471 192.78614746 325.94408691 191.83081055 326.3137207 C189.77617304 327.12860408 187.74528732 328.003165 185.72265625 328.89453125 C181.39348069 330.69463518 176.99171419 332.04349109 172.5 333.375 C171.66146484 333.63087891 170.82292969 333.88675781 169.95898438 334.15039062 C150.16939213 340.06749392 127.55375409 341.88835307 108.3125 333.3125 C107.13171875 332.80460937 105.9509375 332.29671875 104.734375 331.7734375 C90.32152659 325.07495509 78.61248662 315.31481727 67.3125 304.3125 C66.04212891 303.08466797 66.04212891 303.08466797 64.74609375 301.83203125 C37.5711689 275.11691901 17.7017274 241.91727884 0.3125 208.3125 C-0.1098291 207.50200195 -0.5321582 206.69150391 -0.96728516 205.85644531 C-20.75143284 167.46828658 -33.44614052 123.93887732 -39.6875 81.3125 C-39.85523926 80.2395166 -40.02297852 79.1665332 -40.19580078 78.06103516 C-41.54650462 68.87936511 -41.9929963 59.97388156 -41.9375 50.6875 C-41.94523438 49.38554688 -41.95296875 48.08359375 -41.9609375 46.7421875 C-41.93803728 35.29207852 -41.49867899 24.13613866 -36 13.875 C-35.64695801 13.19542236 -35.29391602 12.51584473 -34.93017578 11.81567383 C-32.27978829 6.9273528 -29.53040249 3.20430508 -24.6875 0.3125 C-23.800625 -0.30625 -22.91375 -0.925 -22 -1.5625 C-14.18965763 -4.21506911 -7.44073008 -3.45064928 0 0 Z " fill="#DC7051" transform="translate(237.6875,618.6875)"/>
<path d="M0 0 C10.72446881 7.46227297 15.57629068 18.47336849 17.8671875 30.9921875 C21.76234414 53.02021724 23.28677517 74.9062 23.14086914 97.26098633 C23.11721717 101.1123558 23.12035278 104.96302876 23.12695312 108.81445312 C23.09364946 137.45844769 20.70065882 165.63139867 16.3671875 193.9296875 C16.21206192 194.95323837 16.21206192 194.95323837 16.05380249 195.99746704 C14.68304158 204.99238304 12.97425841 213.84114712 10.8046875 222.6796875 C10.47364257 224.08195674 10.14286489 225.48428914 9.8125 226.88671875 C1.5856449 260.48577741 -10.98886627 289.30595244 -41.08740234 308.41503906 C-46.54316192 311.68824205 -52.323351 314.24978201 -58.1953125 316.6796875 C-58.93539551 317.0001001 -59.67547852 317.3205127 -60.43798828 317.65063477 C-66.93081621 320.38353568 -73.46381805 322.16406353 -80.3203125 323.7421875 C-81.41907715 323.99967773 -82.5178418 324.25716797 -83.64990234 324.52246094 C-123.99255464 333.86646583 -164.37212802 334.80466317 -205.32568359 329.07373047 C-208.04669703 328.70009463 -210.7696608 328.35876443 -213.49609375 328.02734375 C-238.93838285 324.83289354 -264.3032022 317.96074806 -288.1953125 308.6796875 C-288.88890869 308.41921631 -289.58250488 308.15874512 -290.29711914 307.89038086 C-314.84483062 298.65415192 -339.32875909 287.10977681 -359.1953125 269.6796875 C-359.83726562 269.13183594 -360.47921875 268.58398438 -361.140625 268.01953125 C-367.17780521 262.49198313 -371.51114174 256.10154279 -372.77734375 247.91796875 C-373.02635333 242.09809361 -373.11622193 237.02299718 -369.6953125 232.1171875 C-368.02734375 230.31640625 -368.02734375 230.31640625 -366.1953125 228.6796875 C-365.58042969 228.12925781 -364.96554687 227.57882812 -364.33203125 227.01171875 C-357.19228656 221.21693598 -348.72474214 218.46827743 -340.20532227 215.3190918 C-333.47162168 212.81738587 -326.80132898 210.16211564 -320.1328125 207.4921875 C-319.06224609 207.06405762 -317.99167969 206.63592773 -316.88867188 206.19482422 C-267.38359673 186.32581121 -221.96011099 158.09107007 -180.91894531 124.10351562 C-178.48301185 122.09128277 -176.02488775 120.10661 -173.5703125 118.1171875 C-167.63113342 113.25220972 -161.81756849 108.24421564 -156.00244141 103.23242188 C-154.21107106 101.69322768 -152.41335363 100.16181631 -150.61328125 98.6328125 C-143.90329144 92.9264182 -137.32588615 87.10961396 -130.859375 81.12890625 C-128.66440473 79.11094971 -126.4486504 77.13165305 -124.1953125 75.1796875 C-119.2915146 70.92432569 -114.53136436 66.5120914 -109.75537109 62.11474609 C-107.75212532 60.27201078 -105.74450388 58.43408437 -103.73681641 56.59619141 C-99.56022611 52.77259125 -95.39212016 48.94013574 -91.2355957 45.09472656 C-81.77290496 36.34371451 -72.28194584 27.71499752 -62.1953125 19.6796875 C-61.19636963 18.87990479 -61.19636963 18.87990479 -60.17724609 18.06396484 C-21.41668882 -12.88049968 -21.41668882 -12.88049968 0 0 Z " fill="#DC7051" transform="translate(772.1953125,742.3203125)"/>
<path d="M0 0 C0.99 0.33 1.98 0.66 3 1 C2.57589844 1.53367187 2.15179687 2.06734375 1.71484375 2.6171875 C-15.07379535 23.94429387 -29.78670381 48.32424834 -36 75 C-36.19335938 75.74765625 -36.38671875 76.4953125 -36.5859375 77.265625 C-39.51741 89.75624694 -39.2029 103.23984418 -39 116 C-44.20634851 115.54727404 -48.45306321 114.19742837 -53.2578125 112.16015625 C-55.15327716 111.35822889 -57.0665563 110.59760474 -58.9921875 109.87109375 C-70.11916074 105.58168803 -77.99107004 100.12698013 -83 89 C-85.26845718 80.05142352 -84.40784742 72.11562496 -80 64 C-73.71684459 54.51305742 -65.42603366 47.33028836 -56.60253906 40.28613281 C-54.91069809 38.92832991 -53.23223176 37.55510594 -51.5546875 36.1796875 C-37.68258226 24.86287183 -22.95760327 14.81648694 -8 5 C-6.71029297 4.12601562 -6.71029297 4.12601562 -5.39453125 3.234375 C-3.64710964 2.07579309 -1.83110777 1.02119472 0 0 Z " fill="#CD6447" transform="translate(728,359)"/>
<path d="M0 0 C0.79301514 0.25442871 1.58603027 0.50885742 2.40307617 0.77099609 C29.42785704 9.99723236 56.74493057 25.14662235 79.75 41.875 C79.75 42.205 79.75 42.535 79.75 42.875 C74.05900895 42.31523039 68.51833721 41.51364629 62.9140625 40.375 C53.05416756 38.81689315 43.21090688 38.68867051 33.25341797 38.68969727 C30.88621024 38.68751036 28.51946961 38.6692864 26.15234375 38.65039062 C4.04302168 38.56658518 -21.18263999 42.46436175 -38.25 57.875 C-39.12943404 60.50960948 -39.12943404 60.50960948 -39.25 62.875 C-45.75933795 52.09903718 -44.48358048 31.92768798 -43.25 19.875 C-42.21567521 15.88546152 -40.84065167 13.06097819 -38.25 9.875 C-37.71890625 9.21628906 -37.1878125 8.55757812 -36.640625 7.87890625 C-26.96168482 -2.79900712 -13.22327283 -4.27685368 0 0 Z " fill="#CE6548" transform="translate(828.25,547.125)"/>
<path d="M0 0 C4.53664932 0.81678207 8.49842548 2.3700903 12.6875 4.25 C13.39430908 4.56428955 14.10111816 4.8785791 14.8293457 5.20239258 C27.65665208 10.94489205 37.94219744 15.67104804 43.375 29.5 C45.08387178 39.06968197 43.78041181 47.7560236 38.75 56.1875 C31.56033131 66.28172312 21.6008427 75.08969072 11.91015625 82.7109375 C9.71766498 84.43550111 7.56958703 86.18442857 5.43359375 87.9765625 C-4.59438391 96.34775485 -15.11291701 103.78891276 -26 111 C-26.66 110.67 -27.32 110.34 -28 110 C-27.3709375 108.97003906 -26.741875 107.94007813 -26.09375 106.87890625 C-20.04374413 96.85654232 -14.74482367 86.6985196 -10 76 C-9.51660156 74.93007813 -9.03320312 73.86015625 -8.53515625 72.7578125 C-5.30526251 65.35556362 -2.95194743 57.83281467 -1 50 C-0.69835937 48.79988281 -0.39671875 47.59976563 -0.0859375 46.36328125 C1.69365982 38.27193457 2.2777724 30.47337062 2.3125 22.1875 C2.32071777 20.77416382 2.32071777 20.77416382 2.32910156 19.33227539 C2.26192651 12.71611159 1.37046898 6.46795462 0 0 Z " fill="#CD6448" transform="translate(560,779)"/>
<path d="M0 0 C0.99 0.33 1.98 0.66 3 1 C8.24321045 37.56203001 8.24321045 37.56203001 -1.5625 50.75 C-8.01537514 57.45780354 -15.13927878 60.60931816 -24.375 60.8125 C-35.20876538 60.69481693 -45.03258348 56.92022146 -55 53 C-56.22589844 52.525625 -57.45179688 52.05125 -58.71484375 51.5625 C-63.61146276 49.58656295 -68.33627017 47.3748125 -73.02734375 44.95703125 C-76.01213633 43.50896356 -79.10218751 42.353281 -82.19140625 41.1484375 C-87.54645093 38.95875303 -92.76558025 36.4613259 -98 34 C-97.67 32.68 -97.34 31.36 -97 30 C-96.28046143 29.97494385 -95.56092285 29.9498877 -94.81958008 29.92407227 C-87.90970658 29.68015534 -81.00096485 29.41569053 -74.09277344 29.12792969 C-72.31753473 29.05449859 -70.54218938 28.9833851 -68.76660156 28.91894531 C-59.20726677 28.55910129 -50.19770534 26.48889861 -41 24 C-39.93652344 23.71253906 -38.87304688 23.42507813 -37.77734375 23.12890625 C-23.45483251 18.79167203 -10.25300758 10.91449194 0 0 Z " fill="#CE6448" transform="translate(470,653)"/>
<path d="M0 0 C1.10859375 0.00322266 2.2171875 0.00644531 3.359375 0.00976562 C4.50148438 0.01814453 5.64359375 0.02652344 6.8203125 0.03515625 C8.56828125 0.04192383 8.56828125 0.04192383 10.3515625 0.04882812 C13.21619895 0.06056844 16.08072883 0.07699055 18.9453125 0.09765625 C18.9453125 0.42765625 18.9453125 0.75765625 18.9453125 1.09765625 C18.25904785 1.1227124 17.5727832 1.14776855 16.86572266 1.17358398 C13.76705433 1.28937052 10.66870327 1.4121751 7.5703125 1.53515625 C6.49007812 1.57447266 5.40984375 1.61378906 4.296875 1.65429688 C3.265625 1.69619141 2.234375 1.73808594 1.171875 1.78125 C-0.25777588 1.83623657 -0.25777588 1.83623657 -1.71630859 1.89233398 C-4.07601099 1.9552909 -4.07601099 1.9552909 -6.0546875 3.09765625 C-8.06269206 2.81653561 -10.06482801 2.48697658 -12.0546875 2.09765625 C-12.0546875 1.76765625 -12.0546875 1.43765625 -12.0546875 1.09765625 C-7.9794241 0.3298915 -4.14463303 -0.02136409 0 0 Z " fill="#E79A7F" transform="translate(875.0546875,302.90234375)"/>
<path d="M0 0 C0 3 0 3 -1.53125 4.60546875 C-2.1809375 5.12753906 -2.830625 5.64960938 -3.5 6.1875 C-4.1496875 6.71730469 -4.799375 7.24710937 -5.46875 7.79296875 C-5.9740625 8.19128906 -6.479375 8.58960938 -7 9 C-7 6 -7 6 -5.46875 4.39453125 C-4.49421875 3.61142578 -4.49421875 3.61142578 -3.5 2.8125 C-2.8503125 2.28269531 -2.200625 1.75289063 -1.53125 1.20703125 C-1.0259375 0.80871094 -0.520625 0.41039062 0 0 Z " fill="#DF7758" transform="translate(340,289)"/>
<path d="M0 0 C0.66 0.66 1.32 1.32 2 2 C-2.39453125 6.00390625 -2.39453125 6.00390625 -4 7 C-4.99 6.67 -5.98 6.34 -7 6 C-4.69 4.02 -2.38 2.04 0 0 Z " fill="#DE7B5D" transform="translate(411,967)"/>
<path d="M0 0 C3.77545388 1.09068668 6.47043472 1.9083091 9 5 C8.01 5.495 8.01 5.495 7 6 C3.9375 4.75 3.9375 4.75 1 3 C0.67 2.01 0.34 1.02 0 0 Z " fill="#F7DFCE" transform="translate(851,555)"/>
<path d="M0 0 C0.66 0.66 1.32 1.32 2 2 C0.35 3.65 -1.3 5.3 -3 7 C-3.99 6.67 -4.98 6.34 -6 6 C-4.02 4.02 -2.04 2.04 0 0 Z " fill="#D26C50" transform="translate(796,551)"/>
<path d="M0 0 C0.66 0.66 1.32 1.32 2 2 C-0.31 3.32 -2.62 4.64 -5 6 C-5 5.01 -5 4.02 -5 3 C-2.5 1.3125 -2.5 1.3125 0 0 Z " fill="#D37458" transform="translate(711,370)"/>
<path d="M0 0 C0.66 0 1.32 0 2 0 C0.68775452 3.93673644 -0.91910327 6.22719294 -4 9 C-2.94124926 5.59687262 -1.99097846 2.98646769 0 0 Z " fill="#E07E61" transform="translate(257,390)"/>
<path d="M0 0 C-0.99 0 -1.98 0 -3 0 C-3 0.66 -3 1.32 -3 2 C-5.31 2.33 -7.62 2.66 -10 3 C-4.375 -1.3125 -4.375 -1.3125 0 0 Z " fill="#F9E4D7" transform="translate(460,934)"/>
<path d="M0 0 C0 0.99 0 1.98 0 3 C-2.5 5.1875 -2.5 5.1875 -5 7 C-5 6.01 -5 5.02 -5 4 C-2.5 1.8125 -2.5 1.8125 0 0 Z " fill="#DF7F63" transform="translate(212,620)"/>
</svg>
